<svg xmlns="http://www.w3.org/2000/svg" width="39.586" height="36.491" viewBox="0 0 39.586 36.491">
  <g id="Contact_us" data-name="Contact us" transform="translate(-4067.622 -1332.095)">
    <path id="Path_114245" data-name="Path 114245" d="M4067.622,1339.447c.13-.925.248-1.852.4-2.774a.772.772,0,0,1,.3-.45q2.662-1.857,5.341-3.686a2.162,2.162,0,0,1,3.234.717q1.535,2.62,3.035,5.261a2.165,2.165,0,0,1-.783,3.048c-.979.616-1.964,1.226-2.969,1.8a.551.551,0,0,0-.3.749,28.988,28.988,0,0,0,2.575,6.291,33.063,33.063,0,0,0,5.035,7.191c.773.816.778.811,1.741.281.821-.451,1.64-.9,2.463-1.35a2.184,2.184,0,0,1,3.15.877q1.487,2.553,2.956,5.115a2.184,2.184,0,0,1-.993,3.252q-2.9,1.4-5.821,2.759a1.064,1.064,0,0,1-.7,0,13.858,13.858,0,0,1-4.6-2.621,35.917,35.917,0,0,1-7.217-8.244,44.46,44.46,0,0,1-5.918-12.625A26.263,26.263,0,0,1,4067.622,1339.447Z" fill="#00874f"/>
    <path id="Path_114246" data-name="Path 114246" d="M4191.207,1397.312c.02.237.047.411.047.584q0,8.954,0,17.909a1.645,1.645,0,0,1-1.816,1.824c-3.543.005-7.087,0-10.631.008a.518.518,0,0,1-.517-.306q-.821-1.458-1.669-2.9a4.17,4.17,0,0,0-5.842-1.631c-.678.367-1.353.741-2.095,1.148a34.71,34.71,0,0,1-6.575-11.363l2.852-1.778,5.663,3.879q2.08,1.425,4.159,2.853a1.08,1.08,0,0,0,1.507-.009l14.457-9.909C4190.881,1397.529,4191.017,1397.44,4191.207,1397.312Z" transform="translate(-84.047 -58.011)" fill="#00874f"/>
    <path id="Path_114247" data-name="Path 114247" d="M4197.406,1386.221h23.4c-.113.1-.183.17-.264.225q-6.661,4.568-13.32,9.139a.446.446,0,0,1-.608-.009q-4.422-3.048-8.859-6.075c-.229-.156-.337-.279-.235-.589a3.864,3.864,0,0,0-.009-2.319C4197.479,1386.477,4197.445,1386.36,4197.406,1386.221Z" transform="translate(-115.443 -48.145)" fill="#00874f"/>
  </g>
</svg>
